<svg width="27" height="29" viewBox="0 0 27 29" fill="none" xmlns="http://www.w3.org/2000/svg">
<g filter="url(#filter0_dd)">
<path d="M5 3.7H22C22.1634 3.7 22.3 3.8366 22.3 4V10C22.3 10.1634 22.1634 10.3 22 10.3H5C4.8366 10.3 4.7 10.1634 4.7 10V4C4.7 3.8366 4.8366 3.7 5 3.7ZM5 13.7H22C22.1634 13.7 22.3 13.8366 22.3 14V20C22.3 20.1634 22.1634 20.3 22 20.3H5C4.8366 20.3 4.7 20.1634 4.7 20V14C4.7 13.8366 4.8366 13.7 5 13.7Z" stroke="#0A47C4" stroke-width="1.4"/>
</g>
<defs>
<filter id="filter0_dd" x="-2" y="0" width="32" height="32" filterUnits="userSpaceOnUse" color-interpolation-filters="sRGB">
<feFlood flood-opacity="0" result="BackgroundImageFix"/>
<feColorMatrix in="SourceAlpha" type="matrix" values="0 0 0 0 0 0 0 0 0 0 0 0 0 0 0 0 0 0 127 0"/>
<feOffset dy="4"/>
<feGaussianBlur stdDeviation="2"/>
<feColorMatrix type="matrix" values="0 0 0 0 0 0 0 0 0 0 0 0 0 0 0 0 0 0 0.25 0"/>
<feBlend mode="normal" in2="BackgroundImageFix" result="effect1_dropShadow"/>
<feColorMatrix in="SourceAlpha" type="matrix" values="0 0 0 0 0 0 0 0 0 0 0 0 0 0 0 0 0 0 127 0"/>
<feOffset dy="4"/>
<feGaussianBlur stdDeviation="2"/>
<feColorMatrix type="matrix" values="0 0 0 0 0 0 0 0 0 0 0 0 0 0 0 0 0 0 0.25 0"/>
<feBlend mode="normal" in2="effect1_dropShadow" result="effect2_dropShadow"/>
<feBlend mode="normal" in="SourceGraphic" in2="effect2_dropShadow" result="shape"/>
</filter>
</defs>
</svg>
